<svg id="fa2d1c27-99df-44f9-bbb6-73a68944e7d7" data-name="Ebene 1" xmlns="http://www.w3.org/2000/svg" viewBox="0 0 128.08 134.39"><defs><style>.a05173e1-9b7a-49fa-a91f-fcbb65c4e877{fill:#fff;}</style></defs><path class="a05173e1-9b7a-49fa-a91f-fcbb65c4e877" d="M70.35,117.19A45.65,45.65,0,0,1,28.06,89,46.26,46.26,0,0,1,53,28.75a45.82,45.82,0,0,1,60.12,24.58,46.27,46.27,0,0,1-24.9,60.25A45.75,45.75,0,0,1,70.35,117.19Zm.44-89A42.91,42.91,0,1,0,110.27,54.5,42.84,42.84,0,0,0,70.79,28.18Z" transform="translate(-6 -3.73)"/><path class="a05173e1-9b7a-49fa-a91f-fcbb65c4e877" d="M75,38c11.67,0,19.19,5.92,19.19,14.44S89,64.7,89,64.7s11.39,2,11.39,15.22-10,18.71-15.79,18.71a11.42,11.42,0,0,1-10.71-6.42.37.37,0,0,1,.09-.43c.22-.17,2.35-1.54,3.21-2a33.12,33.12,0,0,1,3.15-1.41c.24,0,.36.09.53.26a7.54,7.54,0,0,1,1.08,1.29c.19.41.45,3.69,4.9,3.69s6.71-5,6.71-10.2c0-14.22-15-13.17-15-13.17l-.73-3s9.54-2.48,9.54-11.63c0-7.5-8.61-12-15.82-12-11.29,0-26.11,8.93-26.11,20.6,0,3.41,1.53,7.59,6.4,7.59,4,0,7-5.14,7-5.14l2.93,1.54S59.24,78,48.88,78c-6.66,0-9.72-5.17-9.72-10.33C39.16,55.3,54.08,38,75,38Z" transform="translate(-6 -3.73)"/><path class="a05173e1-9b7a-49fa-a91f-fcbb65c4e877" d="M48.85,86.9c1.64,0,4,1.27,4,3.47s-3,3.29-3,3.29l3.77,3.79A14.14,14.14,0,0,0,62.08,90c2.14-4.62,2.4-16.8,2.4-16.8l-.93-.7s-.16-.11,0-.17,1.06-.32,1.2-.54a2.1,2.1,0,0,0,.18-1,69.44,69.44,0,0,1,1.26-10.95C67.18,55.74,68.8,47.2,78,47.2a7.23,7.23,0,0,1,7.58,6.65,3.23,3.23,0,0,1-3.06,2.92,3.43,3.43,0,0,1-3-3c0-1.51,2.13-2.29,2.13-2.29l-3.9-3.33a10.4,10.4,0,0,0-4.44,3.6c-2.7,4-3,21.62-3,21.62a.28.28,0,0,0,.12.2l.87.63c.08.07,0,.19-.12.26l-1,.41s-.26,4.38-.49,6.31c-.26,2.16-.88,6.17-2.75,9-3,4.66-8.42,8.37-14.56,8.37-1.82,0-8.28-1.08-8.28-7.73C44.12,87.75,47.21,86.9,48.85,86.9Z" transform="translate(-6 -3.73)"/><path class="a05173e1-9b7a-49fa-a91f-fcbb65c4e877" d="M7.11,66.75a3.74,3.74,0,1,1,3.43,4A3.71,3.71,0,0,1,7.11,66.75Z" transform="translate(-6 -3.73)"/><path class="a05173e1-9b7a-49fa-a91f-fcbb65c4e877" d="M9.28,43.8l2.42-4.49c.9-1.65,2.72-3.87,5.57-2.34a3.26,3.26,0,0,1,1.52,4.12l0,0a3.41,3.41,0,0,1,4.55-1.35c3.28,1.77,2.19,4.94,1.32,6.56L22.28,50.8Zm6.64.26L16.49,43c.58-1.09,1.07-2.56-.28-3.28-1.5-.82-2.32.43-3,1.61l-.53,1Zm5.7,3.06.65-1.21c.65-1.19,1.13-2.81-.37-3.62-1.7-.91-2.69.31-3.39,1.6l-.65,1.21Z" transform="translate(-6 -3.73)"/><path class="a05173e1-9b7a-49fa-a91f-fcbb65c4e877" d="M17.64,30.16l1.9-2.23L29,36l3.68-4.32,1.77,1.51-5.58,6.54Z" transform="translate(-6 -3.73)"/><path class="a05173e1-9b7a-49fa-a91f-fcbb65c4e877" d="M30.86,17.3l2.71-1.9,13.2,8.77L44.12,26l-3-2-4.84,3.4.9,3.5-2.48,1.74Zm3,1.49,0,0L35.64,25l3.49-2.46Z" transform="translate(-6 -3.73)"/><path class="a05173e1-9b7a-49fa-a91f-fcbb65c4e877" d="M58.69,19.73a14.83,14.83,0,0,1-3,1.56c-4.45,1.6-8.35.47-10-4.23s.19-8.45,4.85-10.13a9.4,9.4,0,0,1,3.32-.54l.65,2.41a6.14,6.14,0,0,0-3.24.34c-2.83,1-3.81,3.85-2.78,6.69S52,20.16,54.92,19.1a8.09,8.09,0,0,0,2.81-1.66Z" transform="translate(-6 -3.73)"/><path class="a05173e1-9b7a-49fa-a91f-fcbb65c4e877" d="M59.74,4.79l2.92-.26.57,6.31,4.68-6.78,3.58-.33L66.15,11.2l6.93,7.2-3.81.34L63.42,12.4h0L64,19.22l-2.92.27Z" transform="translate(-6 -3.73)"/><path class="a05173e1-9b7a-49fa-a91f-fcbb65c4e877" d="M78.74,4,83.3,5.06l.77,11.69h0l6-10.07,4.56,1.09L91.22,22.13l-2.73-.65L91.32,9.64l0,0L84.62,20.55,81.9,19.9l-1-12.76-.05,0L78,19l-2.72-.66Z" transform="translate(-6 -3.73)"/><path class="a05173e1-9b7a-49fa-a91f-fcbb65c4e877" d="M108.18,15c3.81,2.53,4.21,6.56,1.74,10.27s-6.37,5-10.22,2.43S95.49,21.07,98,17.3,104.31,12.38,108.18,15ZM101,25.71c2.49,1.66,4.9,0,6.39-2.18s1.93-5-.49-6.65-4.9-.05-6.34,2.11S98.5,24.06,101,25.71Z" transform="translate(-6 -3.73)"/><path class="a05173e1-9b7a-49fa-a91f-fcbb65c4e877" d="M118.86,23.88l2,2.41c2,2.4,4.52,5.19,1.38,7.83a3.36,3.36,0,0,1-4.56-.09l0,0a2.16,2.16,0,0,1-.16,2.16l-2.9,5.51-2.11-2.49,2.39-4.32a1.82,1.82,0,0,0-.15-2.53l-.6-.72-4.69,4-1.9-2.24Zm-2.93,6.3.62.73c.93,1.1,2.16,2.23,3.57,1s.42-2.48-.53-3.6l-.62-.74Z" transform="translate(-6 -3.73)"/><path class="a05173e1-9b7a-49fa-a91f-fcbb65c4e877" d="M128.91,37.16l3.84,7.71-2.09,1-2.54-5.08-3.26,1.62,2.33,4.65-2.09,1-2.32-4.66-3.72,1.85,2.56,5.12-2.09,1-3.86-7.74Z" transform="translate(-6 -3.73)"/><path class="a05173e1-9b7a-49fa-a91f-fcbb65c4e877" d="M134.07,66.29a3.74,3.74,0,1,1-4-3.42A3.73,3.73,0,0,1,134.07,66.29Z" transform="translate(-6 -3.73)"/><path class="a05173e1-9b7a-49fa-a91f-fcbb65c4e877" d="M19.38,85.36l2,4.25-8.7,7.83,0,0L24.25,96l1.95,4.26-13.38,6.17-1.17-2.54,11-5.1,0,0L10,100.23,8.83,97.68,18.23,89l-.05,0-11,5.08L6,91.53Z" transform="translate(-6 -3.73)"/><path class="a05173e1-9b7a-49fa-a91f-fcbb65c4e877" d="M28.37,102.75l2,2.12-6.18,5.85c-1.83,1.73-2.48,3.44-.94,5.06s3.27,1.07,5.1-.66l6.18-5.85,2,2.12-6.84,6.48c-2.86,2.71-5.56,2.23-8.13-.49s-2.91-5.44,0-8.16Z" transform="translate(-6 -3.73)"/><path class="a05173e1-9b7a-49fa-a91f-fcbb65c4e877" d="M44.3,119.78a7.4,7.4,0,0,0-2.15-2.13,2,2,0,0,0-3,.49c-1.37,2.15,4.59,4.68,1.94,8.85-1.74,2.72-4.52,2.4-7,.81a12.67,12.67,0,0,1-2.84-2.49l1.66-2.09a7,7,0,0,0,2.29,2.54c.93.59,2.49.91,3.2-.21,1.51-2.37-4.5-4.83-1.88-8.94,1.77-2.78,4.55-2.44,6.71-1.06a11,11,0,0,1,2.66,2.33Z" transform="translate(-6 -3.73)"/><path class="a05173e1-9b7a-49fa-a91f-fcbb65c4e877" d="M48.88,118.94l2.68,1.15-5.8,13.56-2.68-1.15Z" transform="translate(-6 -3.73)"/><path class="a05173e1-9b7a-49fa-a91f-fcbb65c4e877" d="M61.34,137.91A14.91,14.91,0,0,1,58,137.6c-4.59-1.09-7.23-4.17-6.09-9s4.78-7,9.59-5.82a9.46,9.46,0,0,1,3.07,1.35l-.78,2.38A6,6,0,0,0,60.91,125c-2.92-.69-5.28,1.14-6,4.08s.58,5.55,3.6,6.26a7.8,7.8,0,0,0,3.25.14Z" transform="translate(-6 -3.73)"/><path class="a05173e1-9b7a-49fa-a91f-fcbb65c4e877" d="M84.12,125.4a9.37,9.37,0,0,0-3.82-.26,5,5,0,0,0-4.51,6c.4,3,2.53,5,5.61,4.54a7.24,7.24,0,0,0,1.87-.47l-.52-3.81-3.06.42-.31-2.3,5.83-.8,1.07,7.87a18.41,18.41,0,0,1-4.57,1.4c-4.68.64-8.24-1.28-8.92-6.23s2-8.22,6.86-8.89a14.07,14.07,0,0,1,4.32,0Z" transform="translate(-6 -3.73)"/><path class="a05173e1-9b7a-49fa-a91f-fcbb65c4e877" d="M87,121.6l2.9-1.23c2.89-1.21,6.29-2.77,7.89,1a3.37,3.37,0,0,1-1.44,4.32l0,0c.75-.25,1.49.31,2,.8l4.4,4.4-3,1.27-3.41-3.56a1.82,1.82,0,0,0-2.46-.61l-.86.36,2.39,5.65-2.7,1.14Zm5.14,4.67.89-.38c1.33-.56,2.76-1.4,2-3.09s-2.25-1.14-3.6-.57l-.88.38Z" transform="translate(-6 -3.73)"/><path class="a05173e1-9b7a-49fa-a91f-fcbb65c4e877" d="M103.67,112.14c3.56-2.87,7.52-2,10.3,1.42s2.84,7.57-.75,10.46-7.53,2-10.36-1.49S100.06,115.05,103.67,112.14Zm8.1,10.07c2.32-1.87,1.5-4.66-.17-6.73s-4.22-3.35-6.48-1.53-1.51,4.64.11,6.67S109.44,124.09,111.77,122.21Z" transform="translate(-6 -3.73)"/><path class="a05173e1-9b7a-49fa-a91f-fcbb65c4e877" d="M111,105.82l1.63-2.42,7.05,4.77c2.09,1.41,3.89,1.68,5.15-.17s.32-3.44-1.76-4.85l-7-4.77L117.66,96l7.8,5.28c3.27,2.21,3.38,5,1.29,8.06s-4.68,4-8,1.81Z" transform="translate(-6 -3.73)"/><path class="a05173e1-9b7a-49fa-a91f-fcbb65c4e877" d="M118.81,93.22,120,89.73c1-3,2.89-5.42,6.21-4.25s3.6,3.9,2.56,6.86l-.41,1.16,5.28,1.87-1,2.76Zm7.4-.49.34-1c.49-1.37.47-2.78-1.15-3.35s-2.59.44-3.09,1.86l-.34,1Z" transform="translate(-6 -3.73)"/></svg>