<svg viewBox="0 0 170 52" fill="none" xmlns="http://www.w3.org/2000/svg">
<path d="M12.3813 15.5626C13.233 15.7356 13.9118 16.1416 14.4175 16.7804C14.9366 17.4059 15.1961 18.1445 15.1961 18.9963C15.1961 20.1808 14.7968 21.1191 13.9983 21.8112C13.2131 22.4899 12.0685 22.8293 10.5646 22.8293H4.51569V8.73515H10.4448C11.8689 8.73515 12.9602 9.04791 13.7188 9.67343C14.4907 10.2989 14.8767 11.1773 14.8767 12.3086C14.8767 13.187 14.6438 13.9057 14.178 14.4646C13.7255 15.0236 13.1266 15.3896 12.3813 15.5626ZM7.33053 14.6443H9.86587C10.5712 14.6443 11.1036 14.4913 11.4629 14.1851C11.8356 13.8657 12.0219 13.4132 12.0219 12.8276C12.0219 12.242 11.8422 11.7895 11.4829 11.4701C11.1236 11.1507 10.5712 10.991 9.82595 10.991H7.33053V14.6443ZM10.0056 20.5335C10.7509 20.5335 11.3232 20.3738 11.7225 20.0544C12.1217 19.7217 12.3214 19.2425 12.3214 18.617C12.3214 17.9915 12.1151 17.5124 11.7025 17.1797C11.3032 16.8336 10.731 16.6606 9.98566 16.6606H7.33053V20.5335H10.0056ZM22.3787 20.6732H27.11V22.8293H19.5639V8.73515H22.3787V20.6732ZM39.7651 19.9945H34.1154L33.1173 22.8293H30.1427L35.3332 8.89486H38.5473L43.7178 22.8293H40.7433L39.7651 19.9945ZM39.0065 17.8584L36.9303 11.9093L34.8541 17.8584H39.0065ZM54.001 8.5954C55.7578 8.5954 57.2151 9.04791 58.373 9.95291C59.5308 10.8579 60.2961 12.089 60.6687 13.6461H57.7142C57.4081 12.8875 56.9289 12.2886 56.2768 11.8494C55.638 11.4102 54.8661 11.1906 53.961 11.1906C53.2158 11.1906 52.5437 11.377 51.9447 11.7496C51.3458 12.1223 50.88 12.6546 50.5473 13.3467C50.2146 14.0387 50.0482 14.8506 50.0482 15.7822C50.0482 16.7005 50.2146 17.5057 50.5473 18.1978C50.88 18.8898 51.3458 19.4222 51.9447 19.7949C52.5437 20.1675 53.2158 20.3538 53.961 20.3538C54.8661 20.3538 55.638 20.1342 56.2768 19.695C56.9289 19.2558 57.4081 18.6569 57.7142 17.8983H60.6687C60.2961 19.4555 59.5308 20.6865 58.373 21.5916C57.2151 22.4966 55.7578 22.9491 54.001 22.9491C52.6568 22.9491 51.4656 22.6496 50.4275 22.0507C49.4027 21.4385 48.6042 20.5867 48.0319 19.4954C47.473 18.4041 47.1935 17.1663 47.1935 15.7822C47.1935 14.3848 47.473 13.1404 48.0319 12.0491C48.6042 10.9577 49.4027 10.1126 50.4275 9.51372C51.4523 8.90151 52.6435 8.5954 54.001 8.5954ZM70.6462 15.6624L76.6153 22.8293H73.2015L67.9911 16.3811V22.8293H65.1763V8.73515H67.9911V15.0635L73.2215 8.73515H76.6153L70.6462 15.6624ZM95.7675 8.89486V22.8293H92.9726V13.1071L89.3991 22.8293H86.9636L83.3902 13.1471V22.8293H80.5753V8.89486H83.9891L88.2213 19.3756L92.3737 8.89486H95.7675ZM107.32 8.53551C108.637 8.53551 109.828 8.84162 110.893 9.45383C111.971 10.066 112.816 10.9245 113.428 12.0291C114.054 13.1204 114.367 14.3582 114.367 15.7423C114.367 17.1264 114.054 18.3708 113.428 19.4754C112.816 20.5801 111.971 21.4385 110.893 22.0507C109.828 22.6629 108.637 22.969 107.32 22.969C106.002 22.969 104.804 22.6629 103.726 22.0507C102.662 21.4385 101.816 20.5801 101.191 19.4754C100.579 18.3708 100.273 17.1264 100.273 15.7423C100.273 14.3582 100.579 13.1204 101.191 12.0291C101.816 10.9245 102.662 10.066 103.726 9.45383C104.804 8.84162 106.002 8.53551 107.32 8.53551ZM107.32 11.1308C106.495 11.1308 105.769 11.3171 105.144 11.6897C104.518 12.0624 104.026 12.6014 103.666 13.3068C103.32 13.9988 103.147 14.8107 103.147 15.7423C103.147 16.6739 103.32 17.4924 103.666 18.1978C104.026 18.8898 104.518 19.4222 105.144 19.7949C105.769 20.1675 106.495 20.3538 107.32 20.3538C108.145 20.3538 108.87 20.1675 109.496 19.7949C110.121 19.4222 110.607 18.8898 110.953 18.1978C111.312 17.4924 111.492 16.6739 111.492 15.7423C111.492 14.8107 111.312 13.9988 110.953 13.3068C110.607 12.6014 110.121 12.0624 109.496 11.6897C108.87 11.3171 108.145 11.1308 107.32 11.1308ZM126.226 22.8293L122.932 17.3394H121.694V22.8293H118.879V8.73515H124.249C125.886 8.73515 127.131 9.13442 127.983 9.93295C128.848 10.7315 129.28 11.7829 129.28 13.0872C129.28 14.1519 128.981 15.0436 128.382 15.7623C127.796 16.4809 126.944 16.9601 125.827 17.1996L129.34 22.8293H126.226ZM121.694 15.4029H124.01C125.62 15.4029 126.425 14.6909 126.425 13.2668C126.425 12.5881 126.226 12.0624 125.827 11.6897C125.441 11.3038 124.835 11.1108 124.01 11.1108H121.694V15.4029ZM136.391 10.971V14.6243H141.382V16.7804H136.391V20.5734H141.981V22.8293H133.577V8.73515H141.981V10.971H136.391ZM150.214 9.01464V10.9311L145.622 8.77507V6.61903L150.214 9.01464ZM164.543 18.9764C164.543 19.695 164.363 20.3605 164.004 20.9727C163.645 21.5716 163.112 22.0574 162.407 22.43C161.702 22.7894 160.843 22.969 159.832 22.969C158.834 22.969 157.942 22.8027 157.157 22.4699C156.371 22.1239 155.739 21.6315 155.26 20.9927C154.794 20.3538 154.528 19.6085 154.462 18.7568H157.456C157.523 19.329 157.749 19.8082 158.135 20.1941C158.534 20.5668 159.06 20.7531 159.712 20.7531C160.298 20.7531 160.743 20.6 161.05 20.2939C161.369 19.9745 161.529 19.5686 161.529 19.0762C161.529 18.637 161.402 18.2776 161.149 17.9981C160.896 17.7054 160.577 17.4724 160.191 17.2994C159.805 17.1264 159.273 16.9268 158.594 16.7005C157.716 16.4077 156.997 16.1216 156.438 15.8421C155.879 15.5493 155.4 15.1301 155.001 14.5844C154.615 14.0387 154.422 13.3267 154.422 12.4483C154.422 11.2372 154.854 10.2856 155.719 9.59357C156.598 8.8882 157.756 8.53551 159.193 8.53551C160.684 8.53551 161.868 8.89485 162.746 9.61354C163.638 10.3322 164.144 11.2905 164.264 12.4883H161.229C161.149 11.9825 160.936 11.5699 160.59 11.2505C160.244 10.9178 159.772 10.7514 159.173 10.7514C158.654 10.7514 158.235 10.8912 157.915 11.1707C157.596 11.4369 157.436 11.8295 157.436 12.3485C157.436 12.7611 157.556 13.1071 157.796 13.3866C158.048 13.6528 158.361 13.8724 158.734 14.0454C159.12 14.2184 159.639 14.4114 160.291 14.6243C161.196 14.9438 161.928 15.2432 162.487 15.5227C163.059 15.8022 163.545 16.2214 163.944 16.7804C164.343 17.3394 164.543 18.0713 164.543 18.9764Z" fill="#AA0025"/>
<path d="M3.23804 30.822H167.27" stroke="#9C9897" stroke-width="0.665446"/>
<path d="M6.94465 45.3642C7.58169 45.3642 8.11527 45.2405 8.54537 44.993C8.97548 44.7455 9.19053 44.2707 9.19053 43.5688C9.19053 42.8709 8.93896 42.3941 8.43582 42.1385C7.93267 41.8828 7.29157 41.755 6.51252 41.755C6.32181 41.755 6.20008 41.755 6.14733 41.755C6.09864 41.755 6.02155 41.753 5.91605 41.7489V44.853C5.91605 45.068 5.97691 45.208 6.09864 45.2729C6.22037 45.3338 6.50237 45.3642 6.94465 45.3642ZM3.45106 45.5894C3.9542 45.561 4.27881 45.4839 4.42488 45.3582C4.57501 45.2283 4.65008 44.9301 4.65008 44.4635V38.9188C4.65008 38.4602 4.57501 38.1661 4.42488 38.0362C4.27881 37.9023 3.9542 37.8232 3.45106 37.7989V37.5676H6.94465C7.94282 37.5676 8.73405 37.7279 9.31834 38.0484C9.90669 38.369 10.2009 38.9208 10.2009 39.7039C10.2009 40.2923 9.99596 40.7386 9.58614 41.0429C9.35486 41.2174 9.00794 41.3614 8.54537 41.475C9.11749 41.613 9.60643 41.8443 10.0122 42.1689C10.418 42.4894 10.6208 42.9398 10.6208 43.5201C10.6208 44.4939 10.1704 45.1634 9.26965 45.5286C8.79491 45.7193 8.21062 45.8146 7.51677 45.8146H3.45106V45.5894ZM7.1029 41.2559C7.52083 41.2478 7.86775 41.1809 8.14367 41.0551C8.67116 40.8116 8.9349 40.3754 8.9349 39.7465C8.9349 39.004 8.63058 38.5029 8.02194 38.2432C7.68516 38.1011 7.1739 38.0301 6.48817 38.0301C6.22848 38.0301 6.06821 38.0525 6.00735 38.0971C5.94648 38.1417 5.91605 38.2635 5.91605 38.4623V41.2742L7.1029 41.2559ZM12.6892 45.5894C13.1477 45.5407 13.4439 45.4596 13.5778 45.346C13.7158 45.2283 13.7848 44.9341 13.7848 44.4635V38.9188C13.7848 38.4765 13.7178 38.1884 13.5839 38.0545C13.45 37.9165 13.1518 37.8313 12.6892 37.7989V37.5676H19.3112L19.3538 39.357H19.0373C18.9318 38.8051 18.7736 38.4481 18.5626 38.2858C18.3516 38.1235 17.8809 38.0423 17.1506 38.0423H15.4585C15.2759 38.0423 15.1623 38.0727 15.1177 38.1336C15.0771 38.1904 15.0568 38.3 15.0568 38.4623V41.2438H16.974C17.5056 41.2438 17.8444 41.1646 17.9905 41.0064C18.1365 40.8481 18.2542 40.5276 18.3435 40.0447H18.6356V42.9297H18.3435C18.2502 42.4468 18.1305 42.1283 17.9844 41.9741C17.8383 41.8159 17.5015 41.7368 16.974 41.7368H15.0568V44.8226C15.0568 45.0701 15.1339 45.2161 15.2881 45.2608C15.4464 45.3054 15.915 45.3277 16.6941 45.3277C17.5381 45.3277 18.1609 45.2364 18.5626 45.0538C18.9643 44.8672 19.3254 44.4188 19.646 43.7087H19.9929L19.4269 45.8146H12.6892V45.5894ZM23.6438 41.5481C24.5405 41.5156 25.1816 41.4223 25.5671 41.2681C26.2284 40.9962 26.5591 40.485 26.5591 39.7343C26.5591 39.0121 26.2629 38.5191 25.6705 38.2553C25.354 38.1133 24.9341 38.0423 24.4106 38.0423C24.0576 38.0423 23.8406 38.0687 23.7594 38.1214C23.6823 38.1701 23.6438 38.2878 23.6438 38.4744V41.5481ZM21.3066 45.5894C21.7854 45.5448 22.0836 45.4515 22.2013 45.3095C22.319 45.1674 22.3778 44.8368 22.3778 44.3174V38.9188C22.3778 38.4805 22.3108 38.1945 22.1769 38.0606C22.0471 37.9226 21.757 37.8354 21.3066 37.7989V37.5676H24.7576C25.4758 37.5676 26.0743 37.6589 26.5531 37.8415C27.462 38.1864 27.9164 38.8214 27.9164 39.7465C27.9164 40.3673 27.7135 40.8441 27.3078 41.1768C26.9061 41.5095 26.3583 41.7286 25.6644 41.8341L28.2329 44.993C28.3911 45.1877 28.5494 45.3298 28.7076 45.419C28.8659 45.5083 29.0688 45.5651 29.3163 45.5894V45.8146H27.3078L24.3376 41.9802L23.6438 42.0106V44.4635C23.6438 44.926 23.7127 45.2202 23.8507 45.346C23.9927 45.4677 24.2991 45.5489 24.7697 45.5894V45.8146H21.3066V45.5894ZM30.6178 45.5894C31.0763 45.5407 31.3725 45.4596 31.5064 45.346C31.6444 45.2283 31.7133 44.9341 31.7133 44.4635V38.9188C31.7133 38.4765 31.6464 38.1884 31.5125 38.0545C31.3786 37.9165 31.0804 37.8313 30.6178 37.7989V37.5676H34.1418V37.7989C33.6833 37.8232 33.3749 37.8983 33.2167 38.0241C33.0625 38.1498 32.9854 38.4197 32.9854 38.8335V44.8226C32.9854 44.9605 33.0077 45.0701 33.0523 45.1512C33.101 45.2283 33.2045 45.277 33.3628 45.2973C33.4561 45.3095 33.5535 45.3176 33.6549 45.3216C33.7604 45.3257 33.9552 45.3277 34.2392 45.3277C35.3469 45.3277 36.0955 45.2364 36.4851 45.0538C36.8746 44.8712 37.252 44.4046 37.6171 43.654H37.9336L37.325 45.8146H30.6178V45.5894ZM39.296 45.5894C39.8032 45.5529 40.1319 45.4779 40.282 45.3642C40.4321 45.2466 40.5072 44.9463 40.5072 44.4635V38.9188C40.5072 38.4602 40.4321 38.1661 40.282 38.0362C40.1319 37.9023 39.8032 37.8232 39.296 37.7989V37.5676H42.9844V37.7989C42.4772 37.8232 42.1485 37.9023 41.9984 38.0362C41.8482 38.1661 41.7732 38.4602 41.7732 38.9188V44.4635C41.7732 44.9463 41.8482 45.2466 41.9984 45.3642C42.1485 45.4779 42.4772 45.5529 42.9844 45.5894V45.8146H39.296V45.5894ZM44.3833 45.5894C44.8986 45.5367 45.2293 45.421 45.3753 45.2425C45.5214 45.0599 45.5945 44.64 45.5945 43.9826V38.4866L45.424 38.2858C45.2414 38.0707 45.0852 37.9388 44.9554 37.8902C44.8296 37.8374 44.6389 37.807 44.3833 37.7989V37.5676H46.5196L51.3217 43.5688V39.3996C51.3217 38.7138 51.2203 38.2675 51.0174 38.0606C50.8835 37.9267 50.5873 37.8394 50.1288 37.7989V37.5676H53.0564V37.7989C52.5816 37.8475 52.2651 37.9632 52.1069 38.1458C51.9486 38.3284 51.8695 38.7463 51.8695 39.3996V45.9607H51.6565L46.1422 39.1257V43.9826C46.1422 44.6643 46.2416 45.1086 46.4405 45.3156C46.5703 45.4495 46.8604 45.5407 47.3108 45.5894V45.8146H44.3833V45.5894ZM55.0517 43.307C55.2627 43.867 55.5102 44.3133 55.7943 44.646C56.2893 45.2263 56.904 45.5164 57.6384 45.5164C58.0361 45.5164 58.379 45.3906 58.667 45.139C58.9592 44.8875 59.1053 44.5365 59.1053 44.0861C59.1053 43.6803 58.9592 43.3273 58.667 43.0271C58.4763 42.8364 58.0746 42.5503 57.4619 42.1689L56.3968 41.5055C56.0763 41.3026 55.8206 41.0977 55.6299 40.8907C55.2769 40.4972 55.1004 40.063 55.1004 39.5883C55.1004 38.9593 55.3094 38.4359 55.7273 38.018C56.1453 37.6 56.6991 37.3911 57.3889 37.3911C57.6729 37.3911 58.0138 37.4621 58.4114 37.6041C58.8131 37.7421 59.0424 37.811 59.0992 37.811C59.2534 37.811 59.3589 37.7745 59.4157 37.7015C59.4765 37.6284 59.5232 37.525 59.5557 37.3911H59.8113L60.0852 40.0447H59.7869C59.5841 39.2454 59.2574 38.6875 58.807 38.371C58.3607 38.0545 57.9184 37.8962 57.4802 37.8962C57.1394 37.8962 56.8411 37.9977 56.5855 38.2006C56.3339 38.3994 56.2081 38.6773 56.2081 39.0344C56.2081 39.3549 56.3055 39.6288 56.5003 39.8561C56.6951 40.0873 56.9973 40.3288 57.4072 40.5803L58.5027 41.2559C59.1884 41.6779 59.6713 42.0654 59.9513 42.4184C60.2272 42.7755 60.3651 43.1975 60.3651 43.6844C60.3651 44.3377 60.1176 44.8834 59.6226 45.3216C59.1316 45.7599 58.5027 45.979 57.7358 45.979C57.3504 45.979 56.9466 45.9059 56.5246 45.7599C56.1067 45.6138 55.8673 45.5407 55.8064 45.5407C55.6604 45.5407 55.561 45.5854 55.5082 45.6746C55.4595 45.7639 55.4271 45.8593 55.4108 45.9607H55.1369L54.7657 43.307H55.0517ZM66.4374 45.5894C66.9527 45.5367 67.2834 45.421 67.4295 45.2425C67.5756 45.0599 67.6486 44.64 67.6486 43.9826V38.9188C67.6486 38.4684 67.5776 38.1762 67.4356 38.0423C67.2936 37.9044 66.971 37.8232 66.4679 37.7989V37.5676H68.9328L71.8178 43.8548L74.5749 37.5676H77.0582V37.7989C76.5956 37.8313 76.2974 37.9165 76.1635 38.0545C76.0296 38.1884 75.9626 38.4765 75.9626 38.9188V44.4635C75.9626 44.9179 76.0296 45.2101 76.1635 45.3399C76.2974 45.4657 76.5956 45.5489 77.0582 45.5894V45.8146H73.5646V45.5894C74.0677 45.5489 74.3802 45.4596 74.5019 45.3216C74.6277 45.1796 74.6906 44.8449 74.6906 44.3174V38.7179L71.5013 45.8146H71.3309L68.1964 39.0101V43.9826C68.1964 44.6643 68.2958 45.1086 68.4946 45.3156C68.6245 45.4495 68.9146 45.5407 69.365 45.5894V45.8146H66.4374V45.5894ZM82.0906 37.5676V37.7989C81.6118 37.8313 81.3014 37.9125 81.1594 38.0423C81.0174 38.1681 80.9464 38.4602 80.9464 38.9188V42.9053C80.9464 43.5586 81.0357 44.0678 81.2142 44.433C81.5469 45.0985 82.1779 45.4312 83.1071 45.4312C84.1255 45.4312 84.8092 45.0904 85.1582 44.4087C85.353 44.0273 85.4503 43.4389 85.4503 42.6436V39.3996C85.4503 38.722 85.3692 38.2979 85.2069 38.1275C85.0446 37.953 84.7362 37.8435 84.2817 37.7989V37.5676H87.1667V37.7989C86.6838 37.8516 86.3673 37.9693 86.2172 38.1519C86.0711 38.3304 85.9981 38.7463 85.9981 39.3996V42.6436C85.9981 43.5038 85.8662 44.1754 85.6025 44.6582C85.1156 45.5468 84.1905 45.9911 82.8271 45.9911C81.48 45.9911 80.563 45.5529 80.0761 44.6765C79.8123 44.2058 79.6804 43.585 79.6804 42.814V38.9188C79.6804 38.4643 79.6094 38.1742 79.4674 38.0484C79.3295 37.9186 79.0251 37.8354 78.5545 37.7989V37.5676H82.0906ZM89.1925 43.307C89.4035 43.867 89.651 44.3133 89.935 44.646C90.4301 45.2263 91.0448 45.5164 91.7792 45.5164C92.1768 45.5164 92.5197 45.3906 92.8078 45.139C93.1 44.8875 93.246 44.5365 93.246 44.0861C93.246 43.6803 93.1 43.3273 92.8078 43.0271C92.6171 42.8364 92.2154 42.5503 91.6027 42.1689L90.5376 41.5055C90.217 41.3026 89.9614 41.0977 89.7707 40.8907C89.4177 40.4972 89.2412 40.063 89.2412 39.5883C89.2412 38.9593 89.4501 38.4359 89.8681 38.018C90.286 37.6 90.8399 37.3911 91.5297 37.3911C91.8137 37.3911 92.1545 37.4621 92.5522 37.6041C92.9539 37.7421 93.1831 37.811 93.2399 37.811C93.3941 37.811 93.4996 37.7745 93.5564 37.7015C93.6173 37.6284 93.664 37.525 93.6964 37.3911H93.952L94.2259 40.0447H93.9277C93.7248 39.2454 93.3982 38.6875 92.9478 38.371C92.5015 38.0545 92.0592 37.8962 91.621 37.8962C91.2801 37.8962 90.9819 37.9977 90.7263 38.2006C90.4747 38.3994 90.3489 38.6773 90.3489 39.0344C90.3489 39.3549 90.4463 39.6288 90.641 39.8561C90.8358 40.0873 91.1381 40.3288 91.5479 40.5803L92.6435 41.2559C93.3292 41.6779 93.8121 42.0654 94.092 42.4184C94.3679 42.7755 94.5059 43.1975 94.5059 43.6844C94.5059 44.3377 94.2584 44.8834 93.7634 45.3216C93.2724 45.7599 92.6435 45.979 91.8766 45.979C91.4911 45.979 91.0874 45.9059 90.6654 45.7599C90.2475 45.6138 90.0081 45.5407 89.9472 45.5407C89.8011 45.5407 89.7017 45.5854 89.649 45.6746C89.6003 45.7639 89.5678 45.8593 89.5516 45.9607H89.2777L88.9064 43.307H89.1925ZM96.5256 45.5894C97.0328 45.5529 97.3615 45.4779 97.5116 45.3642C97.6617 45.2466 97.7368 44.9463 97.7368 44.4635V38.9188C97.7368 38.4602 97.6617 38.1661 97.5116 38.0362C97.3615 37.9023 97.0328 37.8232 96.5256 37.7989V37.5676H100.214V37.7989C99.7068 37.8232 99.3781 37.9023 99.228 38.0362C99.0778 38.1661 99.0028 38.4602 99.0028 38.9188V44.4635C99.0028 44.9463 99.0778 45.2466 99.228 45.3642C99.3781 45.4779 99.7068 45.5529 100.214 45.5894V45.8146H96.5256V45.5894ZM101.698 45.5894C102.205 45.5489 102.52 45.4596 102.641 45.3216C102.763 45.1796 102.824 44.8449 102.824 44.3174V38.9188C102.824 38.4684 102.755 38.1782 102.617 38.0484C102.483 37.9145 102.177 37.8313 101.698 37.7989V37.5676H105.253V37.7989C104.766 37.8232 104.451 37.9044 104.309 38.0423C104.167 38.1803 104.096 38.4724 104.096 38.9188V41.475C104.863 40.8218 105.49 40.2659 105.977 39.8074C106.849 38.9756 107.285 38.442 107.285 38.2066C107.285 38.0403 107.21 37.9307 107.06 37.878C106.914 37.8252 106.705 37.7989 106.433 37.7989V37.5676H109.696V37.7684C109.298 37.809 108.983 37.8881 108.752 38.0058C108.525 38.1235 108.208 38.3811 107.803 38.7788L105.435 41.0977L108.338 44.2322C108.878 44.8124 109.245 45.1756 109.44 45.3216C109.635 45.4637 109.921 45.557 110.298 45.6016V45.8146H106.488V45.5894C106.833 45.5773 107.066 45.5509 107.188 45.5103C107.31 45.4657 107.371 45.3805 107.371 45.2547C107.371 45.1857 107.33 45.0802 107.249 44.9382C107.172 44.7962 107.048 44.6318 106.878 44.4452L104.516 41.8524L104.096 42.2115V44.4635C104.096 44.926 104.165 45.2202 104.303 45.346C104.445 45.4677 104.751 45.5489 105.222 45.5894V45.8146H101.698V45.5894ZM111.563 45.6746L117.029 38.0423H114.156C113.434 38.0423 112.92 38.2229 112.616 38.584C112.433 38.7991 112.289 39.1703 112.184 39.6978H111.861L112.111 37.5676H118.69V37.7076L113.28 45.3399H116.481C117.207 45.3399 117.737 45.1674 118.069 44.8226C118.276 44.6034 118.463 44.2038 118.629 43.6235H118.922L118.617 45.8146H111.563V45.6746ZM120.296 45.5894C120.803 45.5529 121.132 45.4779 121.282 45.3642C121.432 45.2466 121.507 44.9463 121.507 44.4635V38.9188C121.507 38.4602 121.432 38.1661 121.282 38.0362C121.132 37.9023 120.803 37.8232 120.296 37.7989V37.5676H123.984V37.7989C123.477 37.8232 123.149 37.9023 122.998 38.0362C122.848 38.1661 122.773 38.4602 122.773 38.9188V44.4635C122.773 44.9463 122.848 45.2466 122.998 45.3642C123.149 45.4779 123.477 45.5529 123.984 45.5894V45.8146H120.296V45.5894ZM125.383 45.5894C125.899 45.5367 126.229 45.421 126.375 45.2425C126.522 45.0599 126.595 44.64 126.595 43.9826V38.9188C126.595 38.4684 126.524 38.1762 126.382 38.0423C126.24 37.9044 125.917 37.8232 125.414 37.7989V37.5676H127.879L130.764 43.8548L133.521 37.5676H136.004V37.7989C135.542 37.8313 135.243 37.9165 135.109 38.0545C134.976 38.1884 134.909 38.4765 134.909 38.9188V44.4635C134.909 44.9179 134.976 45.2101 135.109 45.3399C135.243 45.4657 135.542 45.5489 136.004 45.5894V45.8146H132.511V45.5894C133.014 45.5489 133.326 45.4596 133.448 45.3216C133.574 45.1796 133.637 44.8449 133.637 44.3174V38.7179L130.447 45.8146H130.277L127.142 39.0101V43.9826C127.142 44.6643 127.242 45.1086 127.441 45.3156C127.57 45.4495 127.861 45.5407 128.311 45.5894V45.8146H125.383V45.5894ZM137.47 45.5894C137.985 45.5367 138.316 45.421 138.462 45.2425C138.608 45.0599 138.681 44.64 138.681 43.9826V38.9188C138.681 38.4684 138.61 38.1762 138.468 38.0423C138.326 37.9044 138.004 37.8232 137.5 37.7989V37.5676H139.965L142.85 43.8548L145.607 37.5676H148.091V37.7989C147.628 37.8313 147.33 37.9165 147.196 38.0545C147.062 38.1884 146.995 38.4765 146.995 38.9188V44.4635C146.995 44.9179 147.062 45.2101 147.196 45.3399C147.33 45.4657 147.628 45.5489 148.091 45.5894V45.8146H144.597V45.5894C145.1 45.5489 145.413 45.4596 145.534 45.3216C145.66 45.1796 145.723 44.8449 145.723 44.3174V38.7179L142.534 45.8146H142.363L139.229 39.0101V43.9826C139.229 44.6643 139.328 45.1086 139.527 45.3156C139.657 45.4495 139.947 45.5407 140.398 45.5894V45.8146H137.47V45.5894ZM149.557 45.5894C150.015 45.5407 150.311 45.4596 150.445 45.346C150.583 45.2283 150.652 44.9341 150.652 44.4635V38.9188C150.652 38.4765 150.585 38.1884 150.451 38.0545C150.317 37.9165 150.019 37.8313 149.557 37.7989V37.5676H156.179L156.221 39.357H155.905C155.799 38.8051 155.641 38.4481 155.43 38.2858C155.219 38.1235 154.748 38.0423 154.018 38.0423H152.326C152.143 38.0423 152.03 38.0727 151.985 38.1336C151.944 38.1904 151.924 38.3 151.924 38.4623V41.2438H153.841C154.373 41.2438 154.712 41.1646 154.858 41.0064C155.004 40.8481 155.122 40.5276 155.211 40.0447H155.503V42.9297H155.211C155.118 42.4468 154.998 42.1283 154.852 41.9741C154.706 41.8159 154.369 41.7368 153.841 41.7368H151.924V44.8226C151.924 45.0701 152.001 45.2161 152.155 45.2608C152.314 45.3054 152.782 45.3277 153.561 45.3277C154.405 45.3277 155.028 45.2364 155.43 45.0538C155.832 44.8672 156.193 44.4188 156.513 43.7087H156.86L156.294 45.8146H149.557V45.5894ZM160.511 41.5481C161.408 41.5156 162.049 41.4223 162.434 41.2681C163.096 40.9962 163.427 40.485 163.427 39.7343C163.427 39.0121 163.13 38.5191 162.538 38.2553C162.221 38.1133 161.801 38.0423 161.278 38.0423C160.925 38.0423 160.708 38.0687 160.627 38.1214C160.55 38.1701 160.511 38.2878 160.511 38.4744V41.5481ZM158.174 45.5894C158.653 45.5448 158.951 45.4515 159.069 45.3095C159.186 45.1674 159.245 44.8368 159.245 44.3174V38.9188C159.245 38.4805 159.178 38.1945 159.044 38.0606C158.914 37.9226 158.624 37.8354 158.174 37.7989V37.5676H161.625C162.343 37.5676 162.942 37.6589 163.42 37.8415C164.329 38.1864 164.784 38.8214 164.784 39.7465C164.784 40.3673 164.581 40.8441 164.175 41.1768C163.773 41.5095 163.226 41.7286 162.532 41.8341L165.1 44.993C165.259 45.1877 165.417 45.3298 165.575 45.419C165.733 45.5083 165.936 45.5651 166.184 45.5894V45.8146H164.175L161.205 41.9802L160.511 42.0106V44.4635C160.511 44.926 160.58 45.2202 160.718 45.346C160.86 45.4677 161.166 45.5489 161.637 45.5894V45.8146H158.174V45.5894Z" fill="black"/>
</svg>
