<svg width="20" height="19" viewBox="0 0 20 19" fill="none" xmlns="http://www.w3.org/2000/svg">
<path d="M13.8565 2.13037H6.0324C3.87184 2.13037 2.12036 3.8093 2.12036 5.88037V13.3804C2.12036 15.4514 3.87184 17.1304 6.0324 17.1304H13.8565C16.017 17.1304 17.7685 15.4514 17.7685 13.3804V5.88037C17.7685 3.8093 16.017 2.13037 13.8565 2.13037Z" stroke="#AA0025" stroke-width="1.37547" stroke-linecap="round" stroke-linejoin="round"/>
<path d="M13.074 9.15767C13.1706 9.78185 13.0594 10.4193 12.7562 10.9794C12.453 11.5395 11.9733 11.9937 11.3853 12.2774C10.7973 12.5611 10.131 12.6599 9.48106 12.5596C8.83115 12.4594 8.23075 12.1652 7.76528 11.719C7.29981 11.2728 6.99296 10.6973 6.88838 10.0743C6.7838 9.45133 6.88682 8.81259 7.18277 8.24895C7.47873 7.68531 7.95255 7.22548 8.53685 6.93485C9.12115 6.64423 9.78618 6.53761 10.4373 6.63017C11.1015 6.72458 11.7165 7.02127 12.1912 7.4764C12.666 7.93153 12.9756 8.52098 13.074 9.15767Z" stroke="#AA0025" stroke-width="1.37547" stroke-linecap="round" stroke-linejoin="round"/>
<path d="M14.2477 5.50543H14.2575" stroke="#AA0025" stroke-width="1.37547" stroke-linecap="round" stroke-linejoin="round"/>
</svg>
