<svg width="20" height="19" viewBox="0 0 20 19" fill="none" xmlns="http://www.w3.org/2000/svg">
<g clip-path="url(#clip0_323_15440)">
<path d="M12.4028 5.88031H14.75C15.2638 5.88031 15.7725 5.97731 16.2471 6.16576C16.7217 6.35422 17.153 6.63044 17.5163 6.97866C17.8795 7.32688 18.1677 7.74028 18.3643 8.19525C18.5609 8.65022 18.6621 9.13785 18.6621 9.63031C18.6621 10.1228 18.5609 10.6104 18.3643 11.0654C18.1677 11.5203 17.8795 11.9337 17.5163 12.282C17.153 12.6302 16.7217 12.9064 16.2471 13.0949C15.7725 13.2833 15.2638 13.3803 14.75 13.3803H12.4028M7.70836 13.3803H5.36113C4.8474 13.3803 4.33869 13.2833 3.86406 13.0949C3.38943 12.9064 2.95817 12.6302 2.59491 12.282C1.86126 11.5787 1.4491 10.6249 1.4491 9.63031C1.4491 8.63575 1.86126 7.68192 2.59491 6.97866C3.32856 6.2754 4.3236 5.88031 5.36113 5.88031H7.70836" stroke="#AA0025" stroke-width="1.37547" stroke-linecap="round" stroke-linejoin="round"/>
<path d="M6.9259 9.63031H13.1852" stroke="#AA0025" stroke-width="1.37547" stroke-linecap="round" stroke-linejoin="round"/>
</g>
<defs>
<clipPath id="clip0_323_15440">
<rect width="18.7778" height="18" fill="white" transform="translate(0.666626 0.630127)"/>
</clipPath>
</defs>
</svg>
