<svg width="27" height="27" viewBox="0 0 27 27" fill="none" xmlns="http://www.w3.org/2000/svg">
<path d="M21.3749 4.49988H5.62488C4.38224 4.49988 3.37488 5.50724 3.37488 6.74988V22.4999C3.37488 23.7425 4.38224 24.7499 5.62488 24.7499H21.3749C22.6175 24.7499 23.6249 23.7425 23.6249 22.4999V6.74988C23.6249 5.50724 22.6175 4.49988 21.3749 4.49988Z" stroke="#9C9897" stroke-width="1.37547" stroke-linecap="round" stroke-linejoin="round"/>
<path d="M18 2.24988V6.74988" stroke="#9C9897" stroke-width="1.37547" stroke-linecap="round" stroke-linejoin="round"/>
<path d="M9 2.24988V6.74988" stroke="#9C9897" stroke-width="1.37547" stroke-linecap="round" stroke-linejoin="round"/>
<path d="M3.37488 11.2499H23.6249" stroke="#9C9897" stroke-width="1.37547" stroke-linecap="round" stroke-linejoin="round"/>
<path d="M17.1604 15.5492C16.9695 15.35 16.7427 15.1921 16.4932 15.0843C16.2436 14.9765 15.9761 14.921 15.706 14.921C15.4358 14.921 15.1683 14.9765 14.9188 15.0843C14.6692 15.1921 14.4424 15.35 14.2515 15.5492L13.8551 15.9623L13.4588 15.5492C13.073 15.1471 12.5498 14.9212 12.0043 14.9212C11.4587 14.9212 10.9356 15.1471 10.5498 15.5492C10.164 15.9512 9.94733 16.4966 9.94733 17.0652C9.94733 17.6338 10.164 18.1791 10.5498 18.5812L10.9461 18.9943L13.8551 22.0263L16.7641 18.9943L17.1604 18.5812C17.3515 18.3821 17.5031 18.1458 17.6065 17.8857C17.7099 17.6256 17.7631 17.3467 17.7631 17.0652C17.7631 16.7836 17.7099 16.5048 17.6065 16.2447C17.5031 15.9846 17.3515 15.7482 17.1604 15.5492Z" fill="#9C9897"/>
</svg>
