<svg width="14" height="13" viewBox="0 0 14 13" fill="none" xmlns="http://www.w3.org/2000/svg">
<path d="M8.96145 0.155359C8.74697 0.230494 9.28583 -0.26004 3.29089 5.30035C-0.0952867 8.43852 0.127173 8.20828 0.151393 8.56618C0.159373 8.6813 0.186253 8.78388 0.226433 8.8564C0.293493 8.98158 1.15673 9.81238 1.28273 9.87497C1.39263 9.9275 1.50253 9.90502 1.69825 9.78494C2.21037 9.47708 2.74657 9.48218 3.19695 9.80245C3.55087 10.0502 3.73861 10.4405 3.70095 10.8509C3.68219 11.0686 3.61247 11.2513 3.47037 11.4441C3.34703 11.6117 3.32295 11.6793 3.34969 11.7793C3.37377 11.877 4.26935 12.7102 4.44631 12.8029C4.56699 12.8655 4.60983 12.8729 4.81101 12.8729C5.01485 12.8729 5.05503 12.8655 5.18103 12.7978C5.35533 12.7027 13.6775 4.95264 13.7874 4.77741C13.849 4.6798 13.8598 4.63733 13.8598 4.46459C13.8598 4.30439 13.8463 4.24192 13.7954 4.15176C13.7257 4.02658 12.8598 3.1933 12.7363 3.13332C12.629 3.08079 12.5137 3.10327 12.3395 3.21342C11.9454 3.45621 11.4789 3.49123 11.0633 3.30607C10.9801 3.27105 10.838 3.17344 10.7442 3.09334C10.2884 2.69297 10.208 2.0698 10.5512 1.5743C10.6798 1.38914 10.704 1.28657 10.6478 1.18386C10.5807 1.06626 9.69057 0.260417 9.55659 0.197957C9.40651 0.125435 9.10635 0.105312 8.96145 0.155359ZM9.29661 0.650858C9.32881 0.665885 9.51375 0.823473 9.70415 1.00118L10.0554 1.32655L9.96959 1.49172C9.72025 1.97219 9.73369 2.54518 10.0071 3.0382C10.1545 3.30345 10.4952 3.6138 10.79 3.74643C11.0956 3.8865 11.286 3.9291 11.6077 3.93158C11.9134 3.93158 12.1305 3.88899 12.4067 3.77138L12.589 3.69128L12.9242 4.00411C13.2942 4.34698 13.3505 4.41702 13.3129 4.50705C13.2995 4.53959 12.9456 4.88247 12.5274 5.2703C11.9321 5.8259 11.7606 5.97108 11.7284 5.95357C11.707 5.94102 11.6426 5.92848 11.5863 5.92848C11.3959 5.92848 11.2673 6.12867 11.3557 6.28377C11.3826 6.33133 11.1037 6.59908 8.15981 9.3468C5.91841 11.4388 4.91027 12.3623 4.86211 12.3722C4.74955 12.3947 4.66639 12.3397 4.30715 12.0019L3.97465 11.6915L4.05781 11.5389C4.19193 11.2912 4.25353 11.036 4.25353 10.7456C4.25087 10.4478 4.20523 10.2651 4.06313 9.99492C3.87819 9.6446 3.60729 9.39436 3.21585 9.21914C2.93165 9.09147 2.73593 9.049 2.42485 9.049C2.15409 9.049 1.92617 9.10153 1.63931 9.22423L1.43015 9.31688L1.09499 9.00405C0.727633 8.66627 0.671353 8.58865 0.695573 8.4836C0.706353 8.43355 1.64743 7.54513 3.94245 5.41808C6.50823 3.03571 7.18121 2.42522 7.21873 2.44012C7.24281 2.45018 7.30721 2.46259 7.36083 2.46769C7.49495 2.48272 7.62627 2.37008 7.62627 2.23745C7.62627 2.1874 7.61549 2.1273 7.60219 2.10234C7.58077 2.06732 7.70411 1.93965 8.33145 1.35661C8.74697 0.971261 9.10635 0.648376 9.12777 0.640927C9.19203 0.618321 9.23501 0.620934 9.29661 0.650858Z" fill="#AA0025"/>
<path d="M7.94537 2.77798C7.85955 2.86553 7.84625 2.96314 7.90519 3.07081C7.94817 3.14333 8.26709 3.44374 8.37713 3.5113C8.47905 3.57389 8.59959 3.56135 8.69619 3.47876C8.76325 3.41865 8.77935 3.38612 8.77935 3.29857C8.77935 3.19599 8.76857 3.18097 8.51657 2.94576C8.26457 2.71056 8.24847 2.70049 8.13857 2.70049C8.04463 2.70036 8.00977 2.71539 7.94537 2.77798Z" fill="#AA0025"/>
<path d="M9.10351 3.85378C9.01503 3.93637 8.99627 4.03398 9.04989 4.13407C9.09287 4.21417 9.44945 4.54947 9.53527 4.59207C9.72833 4.6872 9.93203 4.57456 9.93203 4.37437C9.93203 4.2718 9.91859 4.25677 9.66925 4.02156C9.42257 3.79132 9.39849 3.7763 9.29657 3.7763C9.20809 3.7763 9.16791 3.79132 9.10351 3.85378Z" fill="#AA0025"/>
<path d="M10.318 4.87968C10.1999 4.93469 10.141 5.09986 10.2026 5.21001C10.2454 5.29012 10.6022 5.62541 10.6878 5.66801C10.8648 5.75556 11.0579 5.67546 11.0954 5.4954C11.1168 5.39034 11.0632 5.31272 10.7924 5.06994C10.5861 4.88478 10.5378 4.85224 10.4627 4.85472C10.4144 4.85472 10.35 4.86727 10.318 4.87968Z" fill="#AA0025"/>
</svg>
