<svg width="20" height="20" viewBox="0 0 20 20" fill="none" xmlns="http://www.w3.org/2000/svg">
<path fill-rule="evenodd" clip-rule="evenodd" d="M10.0003 1.66667C8.23222 1.66667 6.53652 2.36905 5.28628 3.61929C4.03604 4.86953 3.33366 6.56522 3.33366 8.33333C3.33366 10.915 5.01344 13.4202 6.85529 15.3644C7.75917 16.3185 8.66588 17.0996 9.34756 17.6424C9.60125 17.8444 9.82284 18.0127 10.0003 18.1438C10.1778 18.0127 10.3994 17.8444 10.6531 17.6424C11.3348 17.0996 12.2415 16.3185 13.1454 15.3644C14.9872 13.4202 16.667 10.915 16.667 8.33333C16.667 6.56522 15.9646 4.86953 14.7144 3.61929C13.4641 2.36905 11.7684 1.66667 10.0003 1.66667ZM10.0003 19.1667C9.53808 19.86 9.53786 19.8599 9.53762 19.8597L9.53524 19.8582L9.52969 19.8544L9.51059 19.8415C9.49436 19.8305 9.47122 19.8147 9.44162 19.7942C9.38243 19.7532 9.29738 19.6934 9.19015 19.616C8.97578 19.4612 8.67229 19.2352 8.30934 18.9462C7.58477 18.3692 6.61648 17.5357 5.64536 16.5106C3.73721 14.4965 1.66699 11.585 1.66699 8.33333C1.66699 6.1232 2.54497 4.00358 4.10777 2.44078C5.67057 0.877974 7.79019 0 10.0003 0C12.2105 0 14.3301 0.877974 15.8929 2.44078C17.4557 4.00358 18.3337 6.1232 18.3337 8.33333C18.3337 11.585 16.2634 14.4965 14.3553 16.5106C13.3842 17.5357 12.4159 18.3692 11.6913 18.9462C11.3284 19.2352 11.0249 19.4612 10.8105 19.616C10.7033 19.6934 10.6182 19.7532 10.559 19.7942C10.5294 19.8147 10.5063 19.8305 10.4901 19.8415L10.471 19.8544L10.4654 19.8582L10.4636 19.8593C10.4634 19.8595 10.4626 19.86 10.0003 19.1667ZM10.0003 19.1667L10.4626 19.86C10.1827 20.0467 9.81754 20.0464 9.53762 19.8597L10.0003 19.1667Z" fill="#AA0025"/>
<path fill-rule="evenodd" clip-rule="evenodd" d="M10.0003 6.66667C9.07985 6.66667 8.33366 7.41286 8.33366 8.33333C8.33366 9.25381 9.07985 10 10.0003 10C10.9208 10 11.667 9.25381 11.667 8.33333C11.667 7.41286 10.9208 6.66667 10.0003 6.66667ZM6.66699 8.33333C6.66699 6.49238 8.15938 5 10.0003 5C11.8413 5 13.3337 6.49238 13.3337 8.33333C13.3337 10.1743 11.8413 11.6667 10.0003 11.6667C8.15938 11.6667 6.66699 10.1743 6.66699 8.33333Z" fill="#AA0025"/>
</svg>
