<svg width="20" height="20" viewBox="0 0 20 20" fill="none" xmlns="http://www.w3.org/2000/svg">
<path d="M18.2404 14.1002V16.6002C18.2414 16.8322 18.1938 17.062 18.1008 17.2746C18.0079 17.4873 17.8715 17.6782 17.7005 17.835C17.5295 17.9919 17.3276 18.1114 17.1077 18.1858C16.8879 18.2601 16.6549 18.2877 16.4238 18.2668C13.8595 17.9882 11.3963 17.1119 9.23209 15.7085C7.21861 14.429 5.51154 12.722 4.23209 10.7085C2.82374 8.5345 1.94729 6.05932 1.67376 3.4835C1.65293 3.25305 1.68032 3.0208 1.75417 2.80152C1.82803 2.58224 1.94673 2.38074 2.10273 2.20985C2.25872 2.03896 2.44859 1.90242 2.66025 1.80893C2.8719 1.71544 3.10071 1.66705 3.33209 1.66683H5.83209C6.23651 1.66285 6.62858 1.80606 6.93522 2.06977C7.24187 2.33348 7.44215 2.6997 7.49876 3.10016C7.60427 3.90022 7.79996 4.68577 8.08209 5.44183C8.19421 5.7401 8.21847 6.06426 8.15201 6.3759C8.08555 6.68753 7.93114 6.97359 7.70709 7.20016L6.64876 8.2585C7.83505 10.3448 9.56247 12.0722 11.6488 13.2585L12.7071 12.2002C12.9337 11.9761 13.2197 11.8217 13.5314 11.7552C13.843 11.6888 14.1672 11.713 14.4654 11.8252C15.2215 12.1073 16.007 12.303 16.8071 12.4085C17.2119 12.4656 17.5816 12.6695 17.8459 12.9814C18.1101 13.2933 18.2506 13.6915 18.2404 14.1002Z" stroke="#AA0025" stroke-width="1.5" stroke-linecap="round" stroke-linejoin="round"/>
</svg>
