<svg width="38" height="38" viewBox="0 0 38 38" fill="none" xmlns="http://www.w3.org/2000/svg">
<path d="M24.3242 0.548347C23.742 0.766846 25.2047 -0.659676 8.93268 15.5105C-0.258383 24.6365 0.345438 23.967 0.411178 25.0078C0.432838 25.3426 0.505798 25.6409 0.614858 25.8518C0.796878 26.2158 3.13996 28.6319 3.48196 28.8139C3.78026 28.9666 4.07856 28.9013 4.6098 28.5521C5.99984 27.6568 7.45524 27.6716 8.6777 28.603C9.63834 29.3235 10.1479 30.4585 10.0457 31.6521C9.99478 32.2852 9.80554 32.8164 9.41984 33.3769C9.08506 33.8645 9.0197 34.0609 9.09228 34.352C9.15764 34.6359 11.5885 37.0591 12.0688 37.3285C12.3964 37.5106 12.5127 37.5322 13.0587 37.5322C13.612 37.5322 13.7211 37.5106 14.0631 37.3137C14.5362 37.0371 37.1249 14.4993 37.4232 13.9897C37.5904 13.7058 37.6196 13.5823 37.6196 13.08C37.6196 12.6141 37.5832 12.4325 37.4448 12.1703C37.2556 11.8062 34.9053 9.38297 34.5701 9.20855C34.2791 9.05579 33.9659 9.12115 33.4932 9.44149C32.4235 10.1475 31.1574 10.2494 30.0291 9.71091C29.8034 9.60907 29.4177 9.3252 29.1631 9.09227C27.9258 7.92795 27.7077 6.11572 28.6391 4.67477C28.9883 4.13631 29.0541 3.83801 28.9013 3.53933C28.7193 3.19733 26.3032 0.853867 25.9396 0.672226C25.5322 0.461327 24.7175 0.402809 24.3242 0.548347ZM25.2339 1.9893C25.3213 2.033 25.8233 2.49129 26.3401 3.00809L27.2935 3.95429L27.0606 4.4346C26.3838 5.83187 26.4203 7.49817 27.1624 8.93191C27.5626 9.70331 28.4871 10.6058 29.2874 10.9915C30.1169 11.3989 30.6337 11.5227 31.507 11.53C32.3365 11.53 32.9259 11.4061 33.6756 11.0641L34.1704 10.8311L35.0801 11.7409C36.0844 12.738 36.2372 12.9417 36.1354 13.2035C36.0989 13.2981 35.1382 14.2952 34.0032 15.4231C32.3874 17.0388 31.9219 17.461 31.8345 17.4101C31.7764 17.3736 31.6016 17.3371 31.4488 17.3371C30.932 17.3371 30.5828 17.9193 30.823 18.3703C30.8959 18.5087 30.139 19.2873 22.1483 27.2779C16.0645 33.3617 13.3281 36.0472 13.1974 36.0761C12.8919 36.1414 12.6662 35.9814 11.6911 34.9991L10.7886 34.0966L11.0143 33.6528C11.3784 32.9323 11.5456 32.1902 11.5456 31.3458C11.5383 30.4798 11.4145 29.9486 11.0288 29.1627C10.5268 28.1439 9.79148 27.4162 8.729 26.9067C7.9576 26.5354 7.42636 26.4119 6.582 26.4119C5.84708 26.4119 5.22844 26.5647 4.44982 26.9215L3.8821 27.1909L2.97238 26.2812C1.97526 25.2989 1.8225 25.0732 1.88824 24.7676C1.9175 24.6221 4.47186 22.0385 10.7012 15.8528C17.6655 8.92469 19.4921 7.14933 19.594 7.19265C19.6593 7.22191 19.8341 7.25801 19.9797 7.27283C20.3437 7.31653 20.7001 6.98897 20.7001 6.60327C20.7001 6.45773 20.6709 6.28293 20.6348 6.21035C20.5766 6.10851 20.9114 5.73725 22.6142 4.04169C23.742 2.92107 24.7175 1.98209 24.7756 1.96043C24.9501 1.89469 25.0667 1.90228 25.2339 1.9893Z" fill="#615956"/>
<path d="M21.5663 8.17535C21.3333 8.42995 21.2972 8.71381 21.4572 9.02693C21.5739 9.23783 22.4395 10.1115 22.7382 10.3079C23.0148 10.4899 23.342 10.4535 23.6042 10.2133C23.7862 10.0385 23.8299 9.94387 23.8299 9.68927C23.8299 9.39097 23.8007 9.34727 23.1167 8.66327C22.4327 7.97927 22.389 7.95001 22.0907 7.95001C21.8357 7.94963 21.7411 7.99333 21.5663 8.17535Z" fill="#615956"/>
<path d="M24.7099 11.3042C24.4698 11.5444 24.4188 11.8282 24.5644 12.1193C24.681 12.3523 25.6489 13.3273 25.8818 13.4512C26.4059 13.7279 26.9588 13.4003 26.9588 12.8181C26.9588 12.5198 26.9223 12.4761 26.2455 11.7921C25.5759 11.1226 25.5106 11.0789 25.2339 11.0789C24.9938 11.0789 24.8847 11.1226 24.7099 11.3042Z" fill="#615956"/>
<path d="M28.0068 14.288C27.6864 14.448 27.5264 14.9283 27.6936 15.2487C27.8099 15.4816 28.7782 16.4567 29.0107 16.5806C29.491 16.8352 30.0151 16.6022 30.1169 16.0786C30.175 15.7731 30.0295 15.5473 29.2946 14.8413C28.7345 14.3028 28.6034 14.2082 28.3997 14.2154C28.2686 14.2154 28.0938 14.2519 28.0068 14.288Z" fill="#615956"/>
</svg>
