<svg width="13" height="14" viewBox="0 0 13 14" fill="none" xmlns="http://www.w3.org/2000/svg">
<g clip-path="url(#clip0_76_4724)">
<path fill-rule="evenodd" clip-rule="evenodd" d="M6.49465 1.68702C3.56036 1.68702 1.18164 4.06573 1.18164 7.00002C1.18164 9.93431 3.56036 12.313 6.49465 12.313C9.42894 12.313 11.8077 9.93431 11.8077 7.00002C11.8077 4.06573 9.42894 1.68702 6.49465 1.68702ZM0.000976562 7.00002C0.000976562 3.41366 2.90829 0.506348 6.49465 0.506348C10.081 0.506348 12.9883 3.41366 12.9883 7.00002C12.9883 10.5864 10.081 13.4937 6.49465 13.4937C2.90829 13.4937 0.000976562 10.5864 0.000976562 7.00002Z" fill="white"/>
<path fill-rule="evenodd" clip-rule="evenodd" d="M6.58492 3.21216C6.93358 3.21216 7.21623 3.47866 7.21623 3.8074V7.01096L9.39247 8.03692C9.70432 8.18394 9.83073 8.54148 9.6748 8.83552C9.51887 9.12955 9.13967 9.24874 8.82781 9.10172L6.30259 7.91124C6.08871 7.81041 5.95361 7.6043 5.95361 7.37884V3.8074C5.95361 3.47866 6.23626 3.21216 6.58492 3.21216Z" fill="white"/>
</g>
<defs>
<clipPath id="clip0_76_4724">
<rect width="12.9873" height="12.9873" fill="white" transform="translate(0.000976562 0.506348)"/>
</clipPath>
</defs>
</svg>
