<svg width="20" height="20" viewBox="0 0 20 20" fill="none" xmlns="http://www.w3.org/2000/svg">
<g clip-path="url(#clip0_327_11493)">
<path fill-rule="evenodd" clip-rule="evenodd" d="M9.99967 2.50004C5.85754 2.50004 2.49967 5.85791 2.49967 10C2.49967 14.1422 5.85754 17.5 9.99967 17.5C14.1418 17.5 17.4997 14.1422 17.4997 10C17.4997 5.85791 14.1418 2.50004 9.99967 2.50004ZM0.833008 10C0.833008 4.93743 4.93706 0.833374 9.99967 0.833374C15.0623 0.833374 19.1663 4.93743 19.1663 10C19.1663 15.0627 15.0623 19.1667 9.99967 19.1667C4.93706 19.1667 0.833008 15.0627 0.833008 10Z" fill="#AA0025"/>
<path fill-rule="evenodd" clip-rule="evenodd" d="M0.833008 9.99996C0.833008 9.53972 1.2061 9.16663 1.66634 9.16663H18.333C18.7932 9.16663 19.1663 9.53972 19.1663 9.99996C19.1663 10.4602 18.7932 10.8333 18.333 10.8333H1.66634C1.2061 10.8333 0.833008 10.4602 0.833008 9.99996Z" fill="#AA0025"/>
<path fill-rule="evenodd" clip-rule="evenodd" d="M7.49987 9.99997C7.55698 12.5623 8.43822 15.0293 9.99967 17.041C11.5611 15.0293 12.4424 12.5623 12.4995 9.99997C12.4424 7.4376 11.5611 4.97067 9.99967 2.95896C8.43822 4.97067 7.55698 7.4376 7.49987 9.99997ZM9.99967 1.66663L9.38439 1.10461C7.16375 3.53572 5.90177 6.69068 5.83319 9.98261C5.83295 9.99418 5.83295 10.0058 5.83319 10.0173C5.90177 13.3093 7.16375 16.4642 9.38439 18.8953C9.54227 19.0682 9.76557 19.1666 9.99967 19.1666C10.2338 19.1666 10.4571 19.0682 10.615 18.8953C12.8356 16.4642 14.0976 13.3093 14.1662 10.0173C14.1664 10.0058 14.1664 9.99418 14.1662 9.98261C14.0976 6.69068 12.8356 3.53572 10.615 1.10461L9.99967 1.66663Z" fill="#AA0025"/>
</g>
<defs>
<clipPath id="clip0_327_11493">
<rect width="20" height="20" fill="white"/>
</clipPath>
</defs>
</svg>
