<?xml version="1.0"?>
<svg xmlns="http://www.w3.org/2000/svg" style="background-color:#ffffff00" width="300" height="72" viewBox="0 0 417 100" id="brand-logo"><path fill="#ac916a" d="M8 14h50v83H8z"/><path d="M29.445 29.922c0 4.785 4.269 7.363 8.801 7.941V21.98c-5.164 0-8.8 2.472-8.8 7.942z"/><path d="M60.975 7.41H0V100h60.975l1.94-1.936V9.346l-1.94-1.936zm-4.336 81.173c-.685 1.472-1.845 2.209-3.847 2.209H32.239v3.418c0 .316-.211.526-.475.526-.263 0-.474-.42-.738-1.051-1.054-2.999-3.478-5.523-7.483-7.469-.37-.157-.527-.368-.527-.578 0-.263.369-.263.738-.263h6.798v-5.838l1.687.368v5.47h14.966c7.01 0 8.275-1.683 8.854-3.366.158-.42.211-.631.369-.631s.21.368.21.841v6.364zm.158-31.966c0 .316 0 .579-.158.579-.105 0-.264-.105-.316-.473-.211-1.893-1.634-2.84-6.325-2.84H39.776c-4.849 0-10.013 2.156-10.013 7.731 0 6.259 6.429 8.31 13.807 8.31h6.43c3.32 0 5.797-.158 6.218-2.525.053-.368.159-.578.317-.578.21 0 .263.157.263.473 0 .368-.158 2.524-.158 5.364s.158 5.26.158 5.628c0 .316-.053.473-.263.473-.158 0-.264-.21-.317-.578-.421-2.63-2.898-2.84-6.218-2.84H24.808c-2.846 0-3.847.578-4.006 1.735-.052.368-.105.841-.263.841-.21 0-.264-.42-.37-.894a152.84 152.84 0 00-1.738-7.1h17.286v-.105c-5.27-1.472-7.273-5.049-7.273-10.15 0-5.785 3.004-11.202 11.383-11.202H50c5.006.105 5.744-.579 6.271-2.104.105-.368.264-.684.369-.684.158 0 .158.263.158.79 0 .472-.158 1.84-.158 4.733 0 2.84.158 4.733.158 5.416zm-13.86-12.285c-8.432 0-14.493-6.627-14.493-15.567 0-5.733 3.478-12.675 10.804-13.411v22.72c1.212.105 2.319.157 3.425.157 9.802 0 13.439-5.048 13.439-10.15 0-6.048-4.163-10.518-10.33-12.306V14.67c7.273 1.683 11.648 6.942 11.648 14.095 0 8.94-6.061 15.567-14.493 15.567zM145.748 27.105c-.68 2.156-.95 2.83-1.356 2.83-.272 0-.407-.27-.68-.81-3.393-9.432-12.086-17.38-28.786-17.38-10.863 0-25.39 2.424-25.39 16.035 0 16.304 15.614 15.764 36.388 18.593 24.305 3.236 27.972 14.283 27.972 22.77 0 23.717-24.713 30.857-44.402 30.857-16.022 0-24.712-2.693-39.65-7.948l4.347-16.035c.677-2.426.814-2.964 1.494-2.964.678 0 .815.808.95 1.751 1.9 13.475 19.417 21.83 31.91 21.83 13.17 0 30.143-3.504 30.143-19.809 0-14.957-15.071-14.957-26.206-16.708-14.53-1.751-38.156-5.253-38.156-24.253 0-22.099 21.998-27.488 40.464-27.488 11.949 0 23.626 1.617 34.761 5.793l-3.803 12.936zM157.797 35.118c-.815 0-1.358-.539-1.358-1.213 0-.672 1.085-1.212 2.716-1.885 7.74-2.696 14.256-8.894 19.282-19.135.407-.942.95-1.346 1.493-1.346.68 0 .68.941.68 1.886v17.382h15.071l-.948 4.311h-14.124v38.267c0 17.923 4.347 21.154 8.693 22.637 1.085.405 1.626.54 1.626.944 0 .404-.95.54-2.17.54h-16.432c-3.801-1.754-5.703-4.717-5.703-9.837v-52.55h-8.826zM221.146 44.074h.271c5.298-11.185 14.802-19.404 27.565-18.865l-5.703 13.879c-2.307-1.752-5.57-2.157-8.42-2.157-7.738 0-12.896 9.837-12.896 18.596V80.32c0 8.487.678 14.82 7.737 16.168.953.27 1.358.54 1.358.81 0 .403-.405.403-1.085.403-.953 0-7.605-.404-15.075-.404-7.332 0-13.713.404-14.526.404-.68 0-1.223-.135-1.223-.404 0-.27.543-.54 1.495-.673 6.38-2.292 7.329-4.986 7.329-16.304V48.115c0-9.297-.54-14.147-5.293-15.226-1.359-.405-2.036-.808-2.036-1.078.136-.538 1.9-.403 2.851-.674 6.245-1.077 11.947-2.424 17.651-4.447v17.384zM305.77 57.268h-8.008c-14.666 0-29.738 4.311-29.738 22.097 0 9.836 7.194 16.978 16.838 16.978 16.02 0 20.908-16.71 20.908-29.643v-9.432zm13.987 28.7c0 4.447.68 8.49 4.887 10.375.817.404 1.36.404 1.36.81 0 .403-.815.54-1.765.54h-14.663c-1.904-4.312-2.99-9.03-3.263-13.747h-.272c-5.294 10.913-13.168 15.764-25.117 15.764-14.123 0-28.653-6.465-28.653-22.5 0-20.482 31.503-22.503 45.76-22.503h7.74v-4.446c0-12.936-6.109-22.098-19.825-22.098-12.49 0-19.822 3.637-24.714 15.496-.543 1.212-.814 2.29-1.086 2.29-.271 0-.406-.674-.676-1.482l-3.532-12.127c11.135-5.795 19.96-6.738 32.044-6.738 15.48 0 31.775 5.524 31.775 22.503v37.863zM371.5 96.343c8.826 0 23.625-8.623 23.625-33.686 0-28.296-14.8-33.685-23.626-33.685-8.962 0-23.762 5.389-23.762 33.685 0 28.296 14.8 33.686 23.762 33.686zm36.933-33.686c0 7.41 0 14.823.542 22.098.41 5.257 2.31 10.374 7.196 11.723.543.134.952.405.952.675 0 .403-.678.54-2.307.54H398.79c-2.444-4.854-3.255-10.11-3.937-13.477h-.272c-5.296 9.165-13.85 15.495-27.564 15.495-19.011 0-35.035-14.417-35.035-37.054 0-19.133 15.212-37.055 35.035-37.055 11.813 0 21.727 4.177 27.158 11.455h.27V16.305c0-4.85 0-9.298-5.295-10.376-.949-.268-1.766-.404-1.766-.809 0-.537 1.495-.672 2.445-.806C396.21 3.1 401.913 1.753 408.433 0v62.657z"/></svg>
