<svg width="120" height="29" viewBox="0 0 120 29" fill="none" xmlns="http://www.w3.org/2000/svg">
<g clip-path="url(#clip0_508_2153)">
<path d="M6.24918 9.92738L14.1026 18.9419H10.5926L3.54748 10.685V18.9419H0.668701V1.11523H3.54748V9.27346L10.6173 1.11523H14.1026L6.24918 9.92738Z" fill="#F7931E"/>
<path d="M28.9864 2.04931C30.3189 2.81845 31.4116 3.94249 32.1428 5.29615C32.9085 6.68495 33.2913 8.25461 33.2913 10.0052C33.2913 11.7557 32.9085 13.3249 32.1428 14.7129C31.4091 16.0673 30.3172 17.194 28.9864 17.9699C27.6482 18.7541 26.1542 19.1462 24.5044 19.1462C22.8378 19.1462 21.3354 18.7547 19.9972 17.9718C18.6643 17.1945 17.5686 16.0684 16.8281 14.7148C16.054 13.3268 15.667 11.7563 15.667 10.0033C15.667 8.25019 16.054 6.68115 16.8281 5.29615C17.5666 3.94409 18.663 2.82143 19.9972 2.0512C21.3375 1.27586 22.8399 0.888184 24.5044 0.888184C26.1538 0.888184 27.6478 1.27522 28.9864 2.04931ZM21.4492 4.34752C20.5567 4.86948 19.8623 5.61848 19.366 6.59451C18.8698 7.57055 18.6214 8.7068 18.621 10.0033C18.621 11.2997 18.8694 12.436 19.366 13.412C19.8627 14.388 20.5571 15.1372 21.4492 15.6596C22.3409 16.1816 23.3593 16.4426 24.5044 16.4426C25.6323 16.4426 26.638 16.1816 27.5217 15.6596C28.4054 15.1377 29.0956 14.3878 29.5923 13.4101C30.0885 12.4341 30.3368 11.2978 30.3372 10.0014C30.3377 8.7049 30.0893 7.56865 29.5923 6.59261C29.096 5.61784 28.4058 4.86948 27.5217 4.34752C26.6376 3.82556 25.6318 3.56459 24.5044 3.56459C23.3598 3.56459 22.3413 3.82556 21.4492 4.34752Z" fill="#F7931E"/>
<path d="M50.6135 18.9418H47.7347L39.0737 5.78751V18.9418H36.1956V1.14111H39.0737L47.7347 14.3467V1.14111H50.6135V18.9418Z" fill="#F7931E"/>
<path d="M56.6226 16.5937H65.2868V18.9419H53.4163V16.6949L61.9002 3.46215H53.5927V1.11523H65.1571V3.36286L56.6226 16.5937Z" fill="#F7931E"/>
<path d="M70.9647 3.43811V8.84214H77.5299V11.0638H70.9647V16.5937H78.2875V18.9419H68.0859V1.11523H78.2875V3.43811H70.9647Z" fill="#F7931E"/>
<path d="M90.4576 18.9419L86.0136 11.8215H83.9684V18.9419H81.0896V1.11523H87.3771C89.4135 1.11523 90.9581 1.6119 92.0109 2.60522C93.0636 3.59854 93.5896 4.91144 93.5888 6.54393C93.5888 7.94158 93.1973 9.08626 92.4144 9.97797C91.6314 10.8697 90.4994 11.442 89.0183 11.695L93.6899 18.9419H90.4576ZM83.9684 9.77623H87.1469C89.47 9.77623 90.6316 8.74939 90.6316 6.69571C90.6316 5.71925 90.3495 4.95761 89.7854 4.41078C89.2213 3.86394 88.3418 3.58989 87.1469 3.58863H83.9652L83.9684 9.77623Z" fill="#F7931E"/>
<path d="M107.653 1.11523V3.43811H102.679V18.9419H99.7752V3.43811H94.8259V1.11523H107.653Z" fill="#F7931E"/>
<path d="M112.678 3.43811V8.84214H119.242V11.0638H112.678V16.5937H120V18.9419H109.799V1.11523H120V3.43811H112.678Z" fill="#F7931E"/>
<path d="M5.05881 27.4309H2.15536L1.62982 28.9202H0.442139L2.97182 22.1533H4.24868L6.77077 28.9202H5.58245L5.05881 27.4309ZM4.7426 26.5752L3.60424 23.3625L2.46588 26.5752H4.7426Z" fill="white"/>
<path d="M14.7246 22.1551V28.922H13.6053V23.8487L11.6486 28.9213H10.6746L8.7078 23.8487V28.9213H7.5979V22.1544H8.94179L11.1812 27.5572L13.3814 22.1538L14.7246 22.1551Z" fill="white"/>
<path d="M22.9278 25.972C23.1821 26.2778 23.3185 26.6646 23.3123 27.0623C23.3123 27.6332 23.1209 28.086 22.7381 28.4208C22.3553 28.7555 21.8002 28.9225 21.0729 28.9216H18.3396V22.0479H21.0268C21.7148 22.0479 22.2418 22.2022 22.6078 22.5108C22.9738 22.8194 23.1572 23.2429 23.158 23.7813C23.158 24.216 23.0444 24.568 22.8171 24.8375C22.5849 25.11 22.2704 25.2997 21.921 25.3782C22.3162 25.451 22.6729 25.6614 22.9278 25.972ZM19.4495 25.0082H20.8225C21.2116 25.0082 21.5084 24.9171 21.7129 24.735C21.9174 24.5529 22.0197 24.2999 22.0197 23.9761C22.0197 23.6582 21.9174 23.4082 21.7129 23.2261C21.5084 23.0439 21.1986 22.9531 20.7833 22.9535H19.447L19.4495 25.0082ZM21.8299 27.7194C22.0601 27.528 22.1754 27.2603 22.1759 26.9162C22.1763 26.5722 22.057 26.3028 21.8179 26.108C21.5848 25.9132 21.257 25.8158 20.8345 25.8158H19.4432V28.0065H20.8452C21.2669 28.0065 21.5936 27.9108 21.8255 27.7194H21.8299Z" fill="white"/>
<path d="M27.9664 28.9216L26.2525 26.1763H25.4639V28.9216H24.354V22.0479H26.7787C27.5637 22.0479 28.1593 22.2395 28.5653 22.6227C28.9713 23.006 29.1741 23.5119 29.1737 24.1405C29.1737 24.6794 29.0227 25.1208 28.7209 25.4648C28.419 25.8089 27.9824 26.0296 27.4111 26.127L29.2123 28.921L27.9664 28.9216ZM25.4639 25.3877H26.6876C27.5831 25.3877 28.0311 24.9918 28.0315 24.2C28.0315 23.8239 27.9228 23.53 27.7052 23.3184C27.4876 23.1067 27.1485 23.0013 26.6876 23.0022H25.4607L25.4639 25.3877Z" fill="white"/>
<path d="M34.2766 27.4309H31.3738L30.8482 28.9202H29.6599L32.1896 22.1533H33.4671L35.9885 28.9202H34.8009L34.2766 27.4309ZM33.9604 26.5752L32.822 23.3625L31.6837 26.5752H33.9604Z" fill="white"/>
<path d="M42.3716 28.9214H41.2661L37.9263 23.8487V28.9214H36.8164V22.0552H37.9263L41.2661 27.1468V22.0552H42.3716V28.9214Z" fill="white"/>
<path d="M49.196 27.2912C48.914 27.807 48.4832 28.2257 47.9596 28.4928C47.4174 28.7787 46.7698 28.9214 46.0168 28.921H43.7192V22.0479H46.0168C46.7698 22.0479 47.4174 22.1891 47.9596 22.4716C48.4828 22.7351 48.9138 23.151 49.196 23.6643C49.4789 24.1774 49.6201 24.781 49.6197 25.4749C49.6193 26.1689 49.4781 26.7744 49.196 27.2912ZM47.8281 27.2767C48.2695 26.8479 48.4902 26.2473 48.4902 25.4749C48.4902 24.7025 48.2695 24.1022 47.8281 23.6738C47.3866 23.2454 46.7542 23.0313 45.9308 23.0313H44.8304V27.9192H45.9308C46.7542 27.9192 47.3866 27.7051 47.8281 27.2767Z" fill="white"/>
<path d="M51.8492 22.944V25.0278H54.3788V25.8847H51.8492V28.0192H54.6729V28.9242H50.7393V22.0479H54.6729V22.944H51.8492Z" fill="white"/>
<path d="M61.3133 28.9214H60.2059L56.8667 23.8487V28.9214H55.7537V22.0552H56.8636L60.2059 27.1468V22.0552H61.3164L61.3133 28.9214Z" fill="white"/>
<path d="M67.2472 25.972C67.5015 26.2778 67.6379 26.6646 67.6317 27.0623C67.6317 27.6332 67.4403 28.086 67.0575 28.4208C66.6746 28.7555 66.1194 28.9225 65.3917 28.9216H62.6577V22.0479H65.3449C66.0329 22.0479 66.56 22.2022 66.9259 22.5108C67.2919 22.8194 67.4761 23.2431 67.4787 23.7819C67.4787 24.2166 67.365 24.5687 67.1378 24.8381C66.9055 25.1106 66.591 25.3004 66.2416 25.3788C66.6363 25.4517 66.9925 25.6619 67.2472 25.972ZM63.7689 25.0082H65.1387C65.5283 25.0082 65.8251 24.9171 66.0291 24.735C66.2332 24.5529 66.3355 24.2999 66.3359 23.9761C66.3359 23.6582 66.2336 23.4082 66.0291 23.2261C65.8247 23.0439 65.5148 22.9531 65.0995 22.9535H63.7657L63.7689 25.0082ZM66.1506 27.7194C66.3808 27.528 66.4961 27.2603 66.4965 26.9162C66.4969 26.5722 66.3801 26.3028 66.1461 26.108C65.9122 25.9132 65.5843 25.8158 65.1627 25.8158H63.7714V28.0065H65.1735C65.593 28.0065 65.9178 27.9108 66.148 27.7194H66.1506Z" fill="white"/>
<path d="M69.7345 22.0479V26.1276C69.7345 26.7381 69.8692 27.1924 70.1386 27.4905C70.408 27.7885 70.7875 27.9374 71.277 27.937C71.7568 27.937 72.1316 27.7877 72.4014 27.4892C72.6713 27.1907 72.806 26.7364 72.8055 26.1263V22.0479H73.9154V26.1276C73.9154 27.0686 73.672 27.781 73.185 28.2645C72.698 28.7481 72.0555 28.9899 71.2574 28.9899C70.4656 28.9899 69.8294 28.7481 69.3487 28.2645C68.8681 27.781 68.628 27.0686 68.6284 26.1276V22.0479H69.7345Z" fill="white"/>
<path d="M78.8187 28.9216L77.1055 26.1763H76.3168V28.9216H75.2063V22.0479H77.631C78.4165 22.0479 79.012 22.2395 79.4176 22.6227C79.8232 23.006 80.026 23.5119 80.026 24.1405C80.026 24.6794 79.875 25.1208 79.5732 25.4648C79.2713 25.8089 78.8349 26.0296 78.2641 26.127L80.0639 28.9216H78.8187ZM76.3168 25.3877H77.5431C78.439 25.3877 78.887 24.9918 78.887 24.2C78.887 23.8239 78.7782 23.53 78.5607 23.3184C78.3431 23.1067 78.0039 23.0013 77.5431 23.0022H76.3168V25.3877Z" fill="white"/>
<path d="M86.2179 22.593C86.7639 22.996 87.1242 23.5441 87.2987 24.2373H86.1306C85.985 23.8719 85.7276 23.562 85.3951 23.3519C85.0326 23.1247 84.6111 23.0097 84.1834 23.0211C83.7784 23.0149 83.3794 23.1192 83.0293 23.3228C82.6869 23.5264 82.4099 23.8238 82.2311 24.1797C82.0393 24.5495 81.9436 24.9844 81.944 25.4844C81.944 26.0097 82.0414 26.4609 82.2362 26.8378C82.4178 27.2007 82.7042 27.5008 83.0583 27.6991C83.436 27.9035 83.8604 28.0059 84.2897 27.9964C84.8286 28.0078 85.3526 27.8187 85.76 27.4658C86.1686 27.1125 86.4152 26.6276 86.5 26.0112H83.9779V25.1929H87.4347V26.2541C87.3615 26.7485 87.1766 27.2198 86.894 27.6321C86.6074 28.0481 86.223 28.3873 85.7746 28.62C85.2827 28.8729 84.7358 29 84.1828 28.9899C83.5141 28.9899 82.9239 28.8407 82.412 28.5422C81.9055 28.2505 81.4933 27.8196 81.2243 27.3007C80.9448 26.772 80.8052 26.1668 80.8057 25.485C80.8061 24.8033 80.9456 24.1981 81.2243 23.6694C81.4913 23.1535 81.9006 22.7251 82.4038 22.4349C82.9135 22.1398 83.5025 21.9922 84.1708 21.9922C84.9912 21.9922 85.6736 22.1925 86.2179 22.593Z" fill="white"/>
<path d="M89.6646 22.944V25.0278H92.1943V25.8847H89.6646V28.0192H92.4883V28.9242H88.5547V22.0479H92.4883V22.944H89.6646Z" fill="white"/>
<path d="M97.1808 28.9216L95.4676 26.1763H94.679V28.9216H93.5691V22.0479H95.9932C96.7786 22.0479 97.3742 22.2395 97.7797 22.6227C98.1853 23.006 98.3883 23.5119 98.3888 24.1405C98.3888 24.6794 98.2378 25.1208 97.9359 25.4648C97.6341 25.8089 97.1975 26.0296 96.6262 26.127L98.4273 28.921L97.1808 28.9216ZM94.679 25.3877H95.9059C96.8014 25.3877 97.2491 24.9918 97.2491 24.2C97.2491 23.8239 97.1406 23.53 96.9234 23.3184C96.7063 23.1067 96.3671 23.0013 95.9059 23.0022H94.679V25.3877Z" fill="white"/>
<path d="M106.09 22.0479V22.944H104.172V28.9216H103.052V22.944H101.144V22.0479H106.09Z" fill="white"/>
<path d="M111.829 22.4082C112.343 22.7044 112.764 23.1375 113.046 23.6591C113.337 24.2203 113.489 24.8431 113.489 25.4751C113.489 26.1071 113.337 26.7299 113.046 27.2911C112.763 27.8133 112.342 28.2478 111.829 28.5471C111.3 28.844 110.703 29 110.096 29C109.489 29 108.893 28.844 108.363 28.5471C107.849 28.2473 107.427 27.8131 107.141 27.2911C106.847 26.731 106.693 26.1078 106.693 25.4751C106.693 24.8425 106.847 24.2193 107.141 23.6591C107.426 23.138 107.849 22.7052 108.363 22.4082C108.894 22.1145 109.49 21.9604 110.096 21.9604C110.702 21.9604 111.299 22.1145 111.829 22.4082ZM108.92 23.2936C108.573 23.4975 108.294 23.7988 108.117 24.16C107.928 24.5724 107.83 25.0208 107.83 25.4745C107.83 25.9282 107.928 26.3766 108.117 26.789C108.294 27.1502 108.573 27.4515 108.92 27.6554C109.278 27.8604 109.685 27.9646 110.098 27.9571C110.506 27.964 110.908 27.8597 111.261 27.6554C111.606 27.45 111.883 27.149 112.06 26.789C112.249 26.3766 112.347 25.9282 112.347 25.4745C112.347 25.0208 112.249 24.5724 112.06 24.16C111.883 23.7999 111.606 23.4989 111.261 23.2936C110.908 23.0893 110.506 22.985 110.098 22.9919C109.686 22.9849 109.28 23.0894 108.923 23.2942L108.92 23.2936Z" fill="white"/>
<path d="M118.221 28.9216L116.508 26.1763H115.719V28.9216H114.609V22.0479H117.033C117.819 22.0479 118.414 22.2395 118.82 22.6227C119.225 23.006 119.428 23.5119 119.428 24.1405C119.428 24.6794 119.277 25.1208 118.975 25.4648C118.673 25.8089 118.237 26.0296 117.666 26.127L119.464 28.9216H118.221ZM115.719 25.3877H116.945C117.841 25.3877 118.289 24.9918 118.289 24.2C118.289 23.8239 118.18 23.53 117.963 23.3184C117.745 23.1067 117.406 23.0013 116.945 23.0022H115.719V25.3877Z" fill="white"/>
</g>
<defs>
<clipPath id="clip0_508_2153">
<rect width="119.556" height="28.1117" fill="white" transform="translate(0.444092 0.888184)"/>
</clipPath>
</defs>
</svg>
