<svg id="Ebene_1" data-name="Ebene 1" xmlns="http://www.w3.org/2000/svg" xmlns:xlink="http://www.w3.org/1999/xlink" viewBox="0 0 1168.03 270.36"><defs><style>.cls-1{fill:none;}.cls-2{fill:#fff;}.cls-3{clip-path:url(#clip-path);}.cls-4{fill:#e42313;}</style><clipPath id="clip-path" transform="translate(0 0)"><rect class="cls-1" width="1168.03" height="270.36"/></clipPath></defs><title>RBB_Kultur_CMYK_red</title><path class="cls-2" d="M111.74,133.55c-34.79.48-53.51,6-60.19,8.36v40.51H37.46V132.48s21.13-13,74.28-13.27Z" transform="translate(0 0)"/><path class="cls-2" d="M211.34,175.91s-8.9,7.43-43.32,7.43c-18.86,0-40.93-2.81-40.93-2.81V90.27H140.9v30.38a170.86,170.86,0,0,1,22.95-1.7c31.82,0,47.38,8.87,47.38,8.87s3.36,4.34,3.36,23.55C214.59,171.19,211.34,175.91,211.34,175.91Z" transform="translate(0 0)"/><path class="cls-2" d="M313.45,175.91s-8.92,7.43-43.32,7.43c-18.87,0-40.93-2.81-40.93-2.81V90.27H243v30.38a170.76,170.76,0,0,1,23-1.7c31.79,0,47.37,8.87,47.37,8.87s3.36,4.34,3.36,23.55C316.7,171.19,313.45,175.91,313.45,175.91Z" transform="translate(0 0)"/><path class="cls-2" d="M585,236.22,507.71,122.7c-7.58,1.85-13.21,3.57-16.91,4.81v77.86H461.71V44H490.8V98.43c18.86-5.51,47.77-11.52,88.62-13.81v27.92c-15.91,1-29.58,2.53-41.2,4.26l81.34,119.42Z" transform="translate(0 0)"/><path class="cls-2" d="M717.83,146.05c0,42.93-18.67,62.1-58.41,62.1h-.13c-39.74,0-58.41-19.17-58.41-62.1V84.62h28.53v61.12c0,29.36,11.09,36.88,29.94,36.88s29.94-7.52,29.94-36.88V84.62h28.54Z" transform="translate(0 0)"/><rect class="cls-2" x="740.05" y="56.83" width="28.54" height="148.56"/><path class="cls-2" d="M853.84,110.05H818.23v56.89c0,10,2.84,12.93,10,12.93h25.57v25.52H828.23c-25.07,0-38.54-12.5-38.54-38.53v-110h28.54V84.62h35.61Z" transform="translate(0 0)"/><path class="cls-2" d="M989.36,146.05c0,42.93-18.68,62.1-58.41,62.1h-.13c-39.73,0-58.41-19.17-58.41-62.1V84.62h28.53v61.12c0,29.36,11.09,36.88,30,36.88s29.92-7.52,29.92-36.88V84.62h28.54Z" transform="translate(0 0)"/><path class="cls-2" d="M1109.24,132.18c0,22.44-14,34-24.8,36.44l24.33,36.83H1080.2l-24.15-36.11h-22.2v36h-25.27V84.62h62.28c19.24,0,38.38,12.46,38.38,38.46Z" transform="translate(0 0)"/><g class="cls-3"><path class="cls-4" d="M243,135.15v32.33c10.61,1,19.68,1.54,27.33,1.53,17.4,0,27.27-2.14,31.69-3.4A132.38,132.38,0,0,0,302.8,152a122.74,122.74,0,0,0-1-13.67C293.63,135.7,272.45,130.56,243,135.15Z" transform="translate(0 0)"/><path class="cls-4" d="M0,53.67V220H343.33L378.67,53.67Zm111.74,79.88c-34.79.48-53.51,6-60.19,8.36v40.51H37.46V132.48s21.13-13,74.28-13.27Zm99.6,42.36s-8.9,7.43-43.32,7.43c-18.86,0-40.93-2.81-40.93-2.81V90.27H140.9v30.38a170.86,170.86,0,0,1,22.95-1.7c31.82,0,47.38,8.87,47.38,8.87s3.36,4.34,3.36,23.55C214.59,171.19,211.34,175.91,211.34,175.91Zm102.11,0s-8.92,7.43-43.32,7.43c-18.87,0-40.93-2.81-40.93-2.81V90.27H243v30.38a170.76,170.76,0,0,1,23-1.7c31.79,0,47.37,8.87,47.37,8.87s3.36,4.34,3.36,23.55C316.7,171.19,313.45,175.91,313.45,175.91Z" transform="translate(0 0)"/><path class="cls-4" d="M140.9,135.15v32.33c10.61,1,19.69,1.54,27.34,1.53,17.39,0,27.27-2.14,31.67-3.4a125.7,125.7,0,0,0,.8-13.59,122.38,122.38,0,0,0-1-13.67C191.54,135.7,170.34,130.56,140.9,135.15Z" transform="translate(0 0)"/></g><rect class="cls-1" width="1168.03" height="270.36"/><g class="cls-3"><path class="cls-4" d="M1066.9,107.82h-32.76v39.32h32.76c15.24,0,19.14-5.17,19.24-18.75C1086,114.81,1082.34,107.82,1066.9,107.82Z" transform="translate(0 0)"/><path class="cls-4" d="M408.76,0,351.29,270.36H1168V0ZM585,236.22,507.71,122.7c-7.58,1.85-13.21,3.57-16.91,4.81v77.86H461.71V44H490.8V98.43c18.86-5.51,47.77-11.52,88.62-13.81v27.92c-15.91,1-29.58,2.53-41.2,4.26l81.34,119.42Zm132.86-90.17c0,42.93-18.67,62.1-58.41,62.1h-.13c-39.74,0-58.41-19.17-58.41-62.1V84.62h28.53v61.12c0,29.36,11.09,36.88,29.94,36.88s29.94-7.52,29.94-36.88V84.62h28.54Zm50.76,59.34H740.05V56.83h28.54Zm85.25-95.34H818.23v56.89c0,10,2.84,12.93,10,12.93h25.57v25.52H828.23c-25.07,0-38.54-12.5-38.54-38.53v-110h28.54V84.62h35.61Zm135.52,36c0,42.93-18.68,62.1-58.41,62.1h-.13c-39.73,0-58.41-19.17-58.41-62.1V84.62h28.53v61.12c0,29.36,11.09,36.88,30,36.88s29.92-7.52,29.92-36.88V84.62h28.54Zm119.88-13.87c0,22.44-14,34-24.8,36.44l24.33,36.83H1080.2l-24.15-36.11h-22.2v36h-25.27V84.62h62.28c19.24,0,38.38,12.46,38.38,38.46Z" transform="translate(0 0)"/></g></svg>